<svg viewBox="0 0 120 45" xmlns="http://www.w3.org/2000/svg"><path d="m106.368 20.455-8.879-8.873a1.745 1.745 0 0 1 0-2.468l8.88-8.872c.487-.488 1.315-.14 1.315.541v19.123c0 .688-.828 1.028-1.316.549zm3.979-20.453c5.365.418 9.583 4.889 9.591 10.335 0 5.445-4.226 9.917-9.591 10.334a.762.762 0 0 1 -.82-.765v-4.147c0-.371.27-.704.642-.758a4.716 4.716 0 0 0 4.087-4.664 4.716 4.716 0 0 0 -4.087-4.665c-.372-.046-.642-.379-.642-.758v-4.146c0-.441.379-.797.82-.766zm-110.347 40.163c0-1.183.921-2.15 2.152-2.15.441 0 .836.131 1.146.309 2.245 1.493 4.567 2.236 6.68 2.236 2.284 0 3.607-.967 3.607-2.499v-.085c0-1.795-2.461-2.414-5.186-3.241-3.43-.967-7.253-2.367-7.253-6.792v-.093c0-4.378 3.646-7.055 8.26-7.055 2.46 0 5.054.704 7.291 1.888.743.394 1.277 1.098 1.277 2.019 0 1.23-.967 2.15-2.198 2.15-.441 0-.704-.085-1.053-.263-1.889-.967-3.824-1.578-5.45-1.578-2.066 0-3.25.967-3.25 2.282v.085c0 1.71 2.508 2.414 5.232 3.288 3.383 1.052 7.207 2.583 7.207 6.745v.085c0 4.866-3.777 7.272-8.616 7.272a15.928 15.928 0 0 1 -8.832-2.762c-.573-.31-1.014-.966-1.014-1.84zm33.007-7.364c0-6.614 5.272-12.099 12.394-12.099 7.121 0 12.346 5.392 12.346 12.006v.085c0 6.575-5.271 12.052-12.44 12.052-7.075.008-12.3-5.384-12.3-11.96zm19.422 0c0-4.077-2.941-7.45-7.121-7.45-4.266 0-6.99 3.334-6.99 7.365v.085c0 4.03 2.941 7.403 7.075 7.403 4.312 0 7.036-3.327 7.036-7.318v-.086zm12.742 9.09a2.667 2.667 0 0 1 -2.663 2.66 2.659 2.659 0 0 1 -2.655-2.653v-10.76c0-5.74 4.66-10.39 10.411-10.39 5.752 0 10.412 4.658 10.412 10.39v10.76a2.649 2.649 0 0 1 -2.655 2.653 2.659 2.659 0 0 1 -2.655-2.653v-11.286a5.089 5.089 0 0 0 -5.674-5.052c-2.601.286-4.521 2.576-4.521 5.183v11.147zm-34.494-15.883h-4.08v10.559c.063 1.833 1.417 3.35 3.314 3.35h.72a2.47 2.47 0 0 1 2.47 2.467 2.47 2.47 0 0 1 -2.47 2.468h-1.037c-.124 0-.248-.016-.364-.031-4.513-.302-7.803-3.775-7.935-8.037h-.015v-19.524a2.649 2.649 0 0 1 2.655-2.653 2.659 2.659 0 0 1 2.655 2.653v3.922h4.087a2.412 2.412 0 1 1 0 4.827zm60.991 6.359a2.277 2.277 0 0 1 2.268-2.275h5.767c-.758-2.761-2.701-4.742-5.473-4.742-4.187 0-6.479 3.334-6.479 7.365v.085c0 4.03 2.895 7.403 6.96 7.403 1.834 0 3.367-.62 4.528-1.648.921-.812 2.291-.835 3.212-.023 1.123.99 1.069 2.754-.108 3.69-2.067 1.64-4.722 2.63-7.718 2.63-6.959 0-12.099-5.392-12.099-11.967v-.085c0-6.622 4.8-12.099 11.797-12.099 6.162 0 10.59 5.052 10.59 11.666a2.282 2.282 0 0 1 -2.284 2.282h-8.677a2.282 2.282 0 0 1 -2.284-2.282z" fill="#0db14b" fill-rule="evenodd"/></svg>